# xmcd CD database file
#
# Track frame offsets:
#	150
#	13667
#	26415
#	29992
#	44317
#	58095
#	73330
#	87897
#	101945
#	115947
#	130587
#	144432
#	157545
#	171725
#	185480
#	200480
#	213987
#
# Disc length: 3033 seconds
#
# Revision: 0
# Processed by: cddbd v1.5.1PL0 Copyright (c) Steve Scherf et al.
# Submitted via: CDex 1.51
#
DISCID=f80bd711
DTITLE=Mildred Bailey - Roots Of Early Soul On Savoy Vol 10
DYEAR=1900
DGENRE=Jazz
TTITLE0=It's A Woman's Prerogative
TTITLE1=Penthouse Serenade
TTITLE2=All That Glitters Is Not Gold I.C.
TTITLE3=All That Glitters Is Not Gold
TTITLE4=I'll Close My Eyes
TTITLE5=At Sundown
TTITLE6=Lover Come Back To Me
TTITLE7=All Of Me
TTITLE8=Almost Like Being In Love
TTITLE9=Heather On The Hill
TTITLE10=You Started Something
TTITLE11=Born To Be Blue
TTITLE12=Can't We Be Friends
TTITLE13=Don't Worry 'Bout Strangers
TTITLE14=Gone On That Guy
TTITLE15=You Started Something/Alt.Take
TTITLE16=Don't Worry 'Bout Strangers/Alt.Take
EXTD=
EXTT0=
EXTT1=
EXTT2=
EXTT3=
EXTT4=
EXTT5=
EXTT6=
EXTT7=
EXTT8=
EXTT9=
EXTT10=
EXTT11=
EXTT12=
EXTT13=
EXTT14=
EXTT15=
EXTT16=
PLAYORDER=
